<?xml version="1.0" encoding="UTF-8"?>
<!DOCTYPE svg PUBLIC "-//W3C//DTD SVG 1.1//EN" "http://www.w3.org/Graphics/SVG/1.1/DTD/svg11.dtd">
<svg xmlns="http://www.w3.org/2000/svg" version="1.1" width="220px" height="222px" style="shape-rendering:geometricPrecision; text-rendering:geometricPrecision; image-rendering:optimizeQuality; fill-rule:evenodd; clip-rule:evenodd" xmlns:xlink="http://www.w3.org/1999/xlink">
<g><path style="opacity:0.946" fill="#fefffe" d="M 24.5,-0.5 C 80.8333,-0.5 137.167,-0.5 193.5,-0.5C 206.942,2.27403 215.609,10.274 219.5,23.5C 219.5,81.5 219.5,139.5 219.5,197.5C 215.833,209.833 207.833,217.833 195.5,221.5C 137.833,221.5 80.1667,221.5 22.5,221.5C 11.1581,217.491 3.4914,209.825 -0.5,198.5C -0.5,139.833 -0.5,81.1667 -0.5,22.5C 3.70238,10.296 12.0357,2.6293 24.5,-0.5 Z M 26.5,11.5 C 81.501,11.3333 136.501,11.5 191.5,12C 199.155,13.6552 204.321,18.1552 207,25.5C 207.177,79.6846 207.677,133.851 208.5,188C 208.064,198.765 202.731,205.765 192.5,209C 136.833,209.667 81.1667,209.667 25.5,209C 16.6527,206.487 11.8194,200.653 11,191.5C 10.3333,137.5 10.3333,83.5 11,29.5C 12.2334,19.9919 17.4,13.9919 26.5,11.5 Z"/></g>
<g><path style="opacity:0.954" fill="#fefffe" d="M 88.5,13.5 C 94.1764,13.3339 99.8431,13.5006 105.5,14C 107.061,14.3176 108.228,15.1509 109,16.5C 108.564,35.5255 108.397,54.5255 108.5,73.5C 104.667,73.8333 100.833,74.1667 97,74.5C 92.74,74.4605 88.74,73.7939 85,72.5C 85.1657,63.1824 85.6657,53.8491 86.5,44.5C 85.9253,35.9869 85.2587,27.4869 84.5,19C 84.578,16.1437 85.9113,14.3104 88.5,13.5 Z"/></g>
<g><path style="opacity:0.905" fill="#fefffe" d="M 70.5,67.5 C 67.8762,63.9155 66.0428,59.9155 65,55.5C 63.27,44.5365 62.27,33.5365 62,22.5C 72.1179,34.5694 78.2846,48.4027 80.5,64C 80.6174,67.6703 79.9507,71.1703 78.5,74.5C 76.1625,72.9893 75.4958,73.3227 76.5,75.5C 67.5824,79.2062 58.5824,79.3728 49.5,76C 36.9904,70.1353 24.9904,63.4687 13.5,56C 30.2537,55.417 46.587,57.7503 62.5,63C 65.0594,64.7774 67.7261,66.2774 70.5,67.5 Z"/></g>
<g><path style="opacity:0.829" fill="#fefffe" d="M 73.5,77.5 C 75.1992,77.3398 76.8659,77.5065 78.5,78C 77.0641,81.7051 75.2307,85.2051 73,88.5C 45.7716,107.605 43.6049,105.105 66.5,81C 68.9252,79.7874 71.2585,78.6207 73.5,77.5 Z"/></g>
<g><path style="opacity:0.965" fill="#fefffe" d="M 85.5,80.5 C 93.6085,79.8864 101.442,80.5531 109,82.5C 108.531,101.532 108.365,120.532 108.5,139.5C 104.667,139.833 100.833,140.167 97,140.5C 92.74,140.461 88.74,139.794 85,138.5C 85.1268,129.175 85.6268,119.842 86.5,110.5C 85.3758,100.43 85.0425,90.4304 85.5,80.5 Z"/></g>
<g><path style="opacity:0.96" fill="#fefffe" d="M 122.5,85.5 C 129.422,85.1878 136.256,85.5212 143,86.5C 143.825,105.407 143.659,124.24 142.5,143C 135.253,143.812 128.086,143.646 121,142.5C 121.512,125.493 121.345,108.493 120.5,91.5C 120.363,89.1595 121.03,87.1595 122.5,85.5 Z"/></g>
<g><path style="opacity:0.879" fill="#fefffe" d="M 153.5,143.5 C 166.986,138.064 180.986,136.064 195.5,137.5C 186.999,142.251 178.333,146.751 169.5,151C 164.896,152.061 160.229,152.727 155.5,153C 168.333,160.334 178.333,170.5 185.5,183.5C 175.557,179.519 165.89,174.353 156.5,168C 152.283,163.621 149.616,158.454 148.5,152.5C 153.833,152.167 153.833,151.833 148.5,151.5C 148.881,149.058 148.214,148.391 146.5,149.5C 143.338,137.781 145.171,126.781 152,116.5C 155,112.167 158,107.833 161,103.5C 161.029,113.91 160.029,124.243 158,134.5C 157.014,137.806 155.514,140.806 153.5,143.5 Z"/></g>
<g><path style="opacity:0.959" fill="#fefffe" d="M 85.5,146.5 C 93.6085,145.886 101.442,146.553 109,148.5C 108.963,157.337 108.463,166.17 107.5,175C 108.182,183.83 108.849,192.663 109.5,201.5C 109.379,202.894 109.046,204.228 108.5,205.5C 100.608,206.814 92.7749,206.814 85,205.5C 85.129,195.843 85.629,186.176 86.5,176.5C 85.378,166.456 85.0447,156.456 85.5,146.5 Z"/></g>
<g><path style="opacity:0.959" fill="#fefffe" d="M 122.5,148.5 C 129.226,148.205 135.892,148.538 142.5,149.5C 143.5,168.488 143.833,187.488 143.5,206.5C 135.913,206.814 128.413,206.481 121,205.5C 121.512,188.493 121.345,171.493 120.5,154.5C 120.363,152.159 121.03,150.159 122.5,148.5 Z"/></g>
</svg>
